<svg width="224" height="42" viewBox="0 0 224 42" fill="none" xmlns="http://www.w3.org/2000/svg">
<path d="M9.75775 32.384C8.11508 32.384 6.67508 32.096 5.43775 31.52C4.20042 30.944 3.22975 30.1227 2.52575 29.056C1.84308 27.9893 1.49108 26.72 1.46975 25.248H5.05375C5.07508 26.4427 5.49108 27.456 6.30175 28.288C7.11242 29.12 8.25375 29.536 9.72575 29.536C11.0271 29.536 12.0404 29.2267 12.7658 28.608C13.5124 27.968 13.8858 27.1573 13.8858 26.176C13.8858 25.3867 13.7044 24.7467 13.3418 24.256C13.0004 23.7653 12.5204 23.36 11.9018 23.04C11.3044 22.72 10.6111 22.432 9.82175 22.176C9.03242 21.92 8.20042 21.6427 7.32575 21.344C5.59775 20.768 4.29642 20.0213 3.42175 19.104C2.56842 18.1867 2.14175 16.9813 2.14175 15.488C2.12042 14.2293 2.40842 13.1307 3.00575 12.192C3.62442 11.2533 4.47775 10.528 5.56575 10.016C6.67508 9.48267 7.96575 9.216 9.43775 9.216C10.8884 9.216 12.1578 9.48267 13.2458 10.016C14.3551 10.5493 15.2191 11.296 15.8378 12.256C16.4564 13.1947 16.7764 14.2933 16.7978 15.552H13.2138C13.2138 14.976 13.0644 14.432 12.7658 13.92C12.4671 13.3867 12.0298 12.9493 11.4538 12.608C10.8778 12.2667 10.1738 12.096 9.34175 12.096C8.27508 12.0747 7.38975 12.3413 6.68575 12.896C6.00308 13.4507 5.66175 14.2187 5.66175 15.2C5.66175 16.0747 5.91775 16.7467 6.42975 17.216C6.94175 17.6853 7.64575 18.08 8.54175 18.4C9.43775 18.6987 10.4618 19.0507 11.6138 19.456C12.7231 19.8187 13.7151 20.256 14.5898 20.768C15.4644 21.28 16.1578 21.952 16.6698 22.784C17.2031 23.616 17.4698 24.672 17.4698 25.952C17.4698 27.0827 17.1818 28.1387 16.6058 29.12C16.0298 30.08 15.1658 30.8693 14.0138 31.488C12.8618 32.0853 11.4431 32.384 9.75775 32.384ZM27.7063 32C26.1489 32 24.9116 31.6267 23.9943 30.88C23.0769 30.112 22.6183 28.7573 22.6183 26.816V18.976H19.8983V16.128H22.6183L23.0343 12.096H26.0103V16.128H30.4903V18.976H26.0103V26.816C26.0103 27.6907 26.1916 28.2987 26.5543 28.64C26.9383 28.96 27.5889 29.12 28.5063 29.12H30.3303V32H27.7063ZM39.3638 32.384C38.0198 32.384 36.9104 32.16 36.0358 31.712C35.1611 31.264 34.5104 30.6773 34.0838 29.952C33.6571 29.2053 33.4438 28.3947 33.4438 27.52C33.4438 25.984 34.0411 24.768 35.2358 23.872C36.4304 22.976 38.1371 22.528 40.3558 22.528H44.5158V22.24C44.5158 21.0027 44.1744 20.0747 43.4918 19.456C42.8304 18.8373 41.9664 18.528 40.8998 18.528C39.9611 18.528 39.1398 18.7627 38.4358 19.232C37.7531 19.68 37.3371 20.352 37.1878 21.248H33.7958C33.9024 20.096 34.2864 19.1147 34.9478 18.304C35.6304 17.472 36.4838 16.8427 37.5078 16.416C38.5531 15.968 39.6944 15.744 40.9318 15.744C43.1504 15.744 44.8678 16.3307 46.0838 17.504C47.2998 18.656 47.9078 20.2347 47.9078 22.24V32H44.9638L44.6758 29.28C44.2278 30.1547 43.5771 30.8907 42.7238 31.488C41.8704 32.0853 40.7504 32.384 39.3638 32.384ZM40.0358 29.632C40.9531 29.632 41.7211 29.4187 42.3398 28.992C42.9798 28.544 43.4704 27.9573 43.8118 27.232C44.1744 26.5067 44.3984 25.7067 44.4838 24.832H40.7078C39.3638 24.832 38.4038 25.0667 37.8278 25.536C37.2731 26.0053 36.9958 26.592 36.9958 27.296C36.9958 28.0213 37.2624 28.5973 37.7958 29.024C38.3504 29.4293 39.0971 29.632 40.0358 29.632ZM53.2188 39.04L57.0268 30.688H56.0988L49.8268 16.128H53.5068L58.3708 27.872L63.4588 16.128H67.0428L56.8028 39.04H53.2188ZM69.9595 32V9.6H73.3515V19.2H84.1995V9.6H87.5915V32H84.1995V21.984H73.3515V32H69.9595ZM99.443 32.384C97.8857 32.384 96.499 32.0427 95.283 31.36C94.0883 30.656 93.1497 29.6853 92.467 28.448C91.7843 27.2107 91.443 25.7707 91.443 24.128C91.443 22.464 91.7737 21.0027 92.435 19.744C93.1177 18.4853 94.0563 17.504 95.251 16.8C96.467 16.096 97.875 15.744 99.475 15.744C101.032 15.744 102.387 16.096 103.539 16.8C104.691 17.4827 105.587 18.4 106.227 19.552C106.867 20.704 107.187 21.9733 107.187 23.36C107.187 23.5733 107.176 23.808 107.155 24.064C107.155 24.2987 107.144 24.5653 107.123 24.864H94.771C94.8777 26.4 95.379 27.5733 96.275 28.384C97.1923 29.1733 98.2483 29.568 99.443 29.568C100.403 29.568 101.203 29.3547 101.843 28.928C102.504 28.48 102.995 27.8827 103.315 27.136H106.707C106.28 28.6293 105.427 29.8773 104.147 30.88C102.888 31.8827 101.32 32.384 99.443 32.384ZM99.443 18.528C98.3123 18.528 97.3097 18.8693 96.435 19.552C95.5603 20.2133 95.027 21.216 94.835 22.56H103.795C103.731 21.3227 103.294 20.3413 102.483 19.616C101.672 18.8907 100.659 18.528 99.443 18.528ZM116.083 32.384C114.739 32.384 113.629 32.16 112.755 31.712C111.88 31.264 111.229 30.6773 110.803 29.952C110.376 29.2053 110.163 28.3947 110.163 27.52C110.163 25.984 110.76 24.768 111.955 23.872C113.149 22.976 114.856 22.528 117.075 22.528H121.235V22.24C121.235 21.0027 120.893 20.0747 120.211 19.456C119.549 18.8373 118.685 18.528 117.619 18.528C116.68 18.528 115.859 18.7627 115.155 19.232C114.472 19.68 114.056 20.352 113.907 21.248H110.515C110.621 20.096 111.005 19.1147 111.667 18.304C112.349 17.472 113.203 16.8427 114.227 16.416C115.272 15.968 116.413 15.744 117.651 15.744C119.869 15.744 121.587 16.3307 122.803 17.504C124.019 18.656 124.627 20.2347 124.627 22.24V32H121.683L121.395 29.28C120.947 30.1547 120.296 30.8907 119.443 31.488C118.589 32.0853 117.469 32.384 116.083 32.384ZM116.755 29.632C117.672 29.632 118.44 29.4187 119.059 28.992C119.699 28.544 120.189 27.9573 120.531 27.232C120.893 26.5067 121.117 25.7067 121.203 24.832H117.427C116.083 24.832 115.123 25.0667 114.547 25.536C113.992 26.0053 113.715 26.592 113.715 27.296C113.715 28.0213 113.981 28.5973 114.515 29.024C115.069 29.4293 115.816 29.632 116.755 29.632ZM128.582 32V8.96H131.974V32H128.582ZM142.925 32C141.368 32 140.13 31.6267 139.213 30.88C138.296 30.112 137.837 28.7573 137.837 26.816V18.976H135.117V16.128H137.837L138.253 12.096H141.229V16.128H145.709V18.976H141.229V26.816C141.229 27.6907 141.41 28.2987 141.773 28.64C142.157 28.96 142.808 29.12 143.725 29.12H145.549V32H142.925ZM149.207 32V8.96H152.599V18.688C153.132 17.7707 153.868 17.056 154.807 16.544C155.767 16.0107 156.823 15.744 157.975 15.744C159.873 15.744 161.367 16.3413 162.455 17.536C163.543 18.7307 164.087 20.512 164.087 22.88V32H160.727V23.232C160.727 20.16 159.5 18.624 157.047 18.624C155.767 18.624 154.7 19.072 153.847 19.968C153.015 20.864 152.599 22.144 152.599 23.808V32H149.207ZM169.438 39.04L173.246 30.688H172.318L166.046 16.128H169.726L174.59 27.872L179.678 16.128H183.262L173.022 39.04H169.438Z" fill="black"/>
<path d="M204 19.6272C209.135 19.6272 213.314 15.4491 213.314 10.3136C213.314 5.17812 209.135 1 204 1C198.864 1 194.686 5.17812 194.686 10.3136C194.686 15.4491 198.864 19.6272 204 19.6272Z" fill="#FF8E3C"/>
<path d="M204 20.8198C196.35 20.8198 190.127 27.0434 190.127 34.6932V39.4881C190.127 40.323 190.803 40.9999 191.638 40.9999H216.362C217.197 40.9999 217.873 40.323 217.873 39.4881V34.6932C217.873 27.0434 211.65 20.8198 204 20.8198ZM206.978 32.4053H205.008V34.3753C205.008 34.932 204.556 35.3832 204 35.3832C203.443 35.3832 202.992 34.932 202.992 34.3753V32.4053H201.022C200.465 32.4053 200.014 31.9541 200.014 31.3974C200.014 30.8408 200.465 30.3895 201.022 30.3895H202.992V28.4195C202.992 27.8629 203.443 27.4116 204 27.4116C204.556 27.4116 205.008 27.8629 205.008 28.4195V30.3895H206.978C207.534 30.3895 207.985 30.8408 207.985 31.3974C207.985 31.9541 207.534 32.4053 206.978 32.4053Z" fill="#FF8E3C"/>
</svg>
